<svg id="Layer_1" enable-background="new 0 0 512 512" height="512" viewBox="0 0 512 512" width="512" xmlns="http://www.w3.org/2000/svg"><path d="m512 175.667c0-8.284-6.716-15-15-15h-97.467v-34.267h1.067c25.915 0 47.133-20.952 47.133-47.133 0-43.708-35.558-79.267-79.266-79.267h-224.934c-43.708 0-79.266 35.559-79.266 79.267 0 26.358 21.411 47.133 47.133 47.133h1.067v34.267h-97.467c-8.284 0-15 6.716-15 15v321.333c0 8.284 6.716 15 15 15h482c8.284 0 15-6.716 15-15zm-30 40.166c0 13.877-11.29 25.167-25.167 25.167s-25.167-11.29-25.167-25.167v-25.167h50.334zm-80.333 0c0 13.877-11.29 25.167-25.167 25.167s-25.167-11.29-25.167-25.167v-25.167h50.333v25.167zm-307.4-136.566c0-27.166 22.101-49.267 49.266-49.267h1.067v17.133c0 8.284 6.716 15 15 15s15-6.716 15-15v-17.133h34.267v17.133c0 8.284 6.716 15 15 15s15-6.716 15-15v-17.133h34.267v17.133c0 8.284 6.716 15 15 15s15-6.716 15-15v-17.133h34.266v17.133c0 8.284 6.716 15 15 15s15-6.716 15-15v-17.133h1.067c27.166 0 49.267 22.101 49.267 49.267 0 9.334-7.546 17.133-17.133 17.133h-289.201c-9.334 0-17.133-7.546-17.133-17.133zm48.2 47.133h227.066v34.267h-227.066zm128.533 64.267h50.333v25.167c0 13.877-11.29 25.167-25.167 25.167s-25.166-11.291-25.166-25.168zm-80.333 0h50.333v25.167c0 13.876-11.29 25.166-25.167 25.166s-25.167-11.29-25.167-25.167v-25.166zm-80.334 24.716v-24.717h50.333v25.167c0 13.877-11.29 25.167-25.167 25.167s-25.167-11.29-25.167-25.167v-.45zm-80.333-24.716h50.333v24.717c0 14.124-11.423 25.616-25.632 25.616-13.684 0-24.701-11.068-24.701-24.701zm257.067 291.333v-146.733h50.333v146.733zm80.333 0v-146.733h50.333v146.733zm80.333 0v-161.733c0-8.284-6.716-15-15-15h-160.666c-8.284 0-15 6.716-15 15v161.733h-227.067v-216.881c7.568 3.836 15.981 5.881 24.717 5.881 14.854 0 28.82-5.786 39.326-16.291.404-.404.788-.823 1.178-1.237 10.074 10.775 24.399 17.528 40.279 17.528 15.821 0 30.098-6.705 40.167-17.41 10.069 10.705 24.346 17.41 40.167 17.41s30.098-6.705 40.167-17.41c10.069 10.705 24.345 17.41 40.167 17.41 15.821 0 30.098-6.705 40.167-17.41 10.067 10.705 24.344 17.41 40.165 17.41s30.098-6.705 40.167-17.41c10.069 10.705 24.346 17.41 40.167 17.41 9.063 0 17.615-2.211 25.167-6.1v217.1z"/><path d="m207.8 305.267h-128.533c-8.284 0-15 6.716-15 15v112.467c0 8.284 6.716 15 15 15h128.533c8.284 0 15-6.716 15-15v-112.467c0-8.285-6.716-15-15-15zm-15 112.466h-98.533v-82.467h98.533z"/></svg>