<?xml version="1.0" encoding="iso-8859-1"?>
<!-- Generator: Adobe Illustrator 19.0.0, SVG Export Plug-In . SVG Version: 6.00 Build 0)  -->
<svg version="1.1" id="Capa_1" xmlns="http://www.w3.org/2000/svg" xmlns:xlink="http://www.w3.org/1999/xlink" x="0px" y="0px"
	 viewBox="0 0 512.051 512.051" style="enable-background:new 0 0 512.051 512.051;" xml:space="preserve">
<g>
	<g>
		<path d="M512.017,503.244l-16-160c-0.412-4.103-3.876-7.221-8-7.2h-67.68c-13.246-42.15-58.154-65.582-100.305-52.336
			c-24.951,7.841-44.494,27.384-52.336,52.336h-67.68c-4.124-0.021-7.588,3.097-8,7.2l-16,160c-0.21,2.255,0.546,4.494,2.08,6.16
			c1.512,1.676,3.663,2.635,5.92,2.64h320c2.257-0.005,4.408-0.964,5.92-2.64C511.471,507.738,512.227,505.499,512.017,503.244z
			 M416.017,376.044c4.418,0,8,3.582,8,8s-3.582,8-8,8s-8-3.582-8-8S411.598,376.044,416.017,376.044z M344.017,296.044
			c26.061,0.02,49.507,15.841,59.28,40h-118.56C294.51,311.885,317.956,296.064,344.017,296.044z M272.017,376.044
			c4.418,0,8,3.582,8,8s-3.582,8-8,8s-8-3.582-8-8S267.598,376.044,272.017,376.044z M192.897,496.044l2.4-24h252.72v-16h-251.12
			l10.4-104h57.12c0,2.64,0,5.28,0,8c-0.039,0.453-0.039,0.907,0,1.36c-12.543,4.286-19.237,17.928-14.951,30.471
			s17.928,19.237,30.471,14.951c12.543-4.286,19.237-17.928,14.951-30.471c-2.402-7.029-7.922-12.549-14.951-14.951
			c0.065-0.45,0.092-0.905,0.08-1.36c0.025-2.676,0.212-5.347,0.56-8h126.88c0.348,2.653,0.535,5.324,0.56,8
			c-0.039,0.453-0.039,0.907,0,1.36c-12.543,4.286-19.237,17.928-14.951,30.471c4.286,12.543,17.928,19.237,30.471,14.951
			c12.543-4.286,19.237-17.928,14.951-30.471c-2.402-7.029-7.922-12.549-14.951-14.951c0.201-0.438,0.361-0.893,0.48-1.36
			c0-2.72,0-5.36,0-8h57.12l14.4,144H192.897z"/>
	</g>
</g>
<g>
	<g>
		<rect x="144.017" y="456.044" width="16" height="16"/>
	</g>
</g>
<g>
	<g>
		<rect x="464.017" y="456.044" width="16" height="16"/>
	</g>
</g>
<g>
	<g>
		<path d="M261.377,311.564l-5.36-96c-0.254-4.23-3.763-7.528-8-7.52h-35.68c-13.246-42.15-58.154-65.582-100.305-52.336
			c-24.951,7.841-44.494,27.384-52.336,52.336h-35.68c-4.237-0.008-7.746,3.29-8,7.52l-16,288c-0.143,2.213,0.64,4.386,2.16,6
			c1.522,1.596,3.635,2.494,5.84,2.48h144c4.418,0,8-3.582,8-8s-3.582-8-8-8H16.497l1.28-24h110.24v-16H18.657l13.36-232h24.8
			c0,2.64,0,5.28,0,8c-0.083,0.45-0.083,0.91,0,1.36c-12.558,4.242-19.3,17.86-15.058,30.418c4.242,12.558,17.86,19.3,30.418,15.058
			c12.558-4.242,19.3-17.86,15.058-30.418c-2.396-7.093-7.965-12.662-15.058-15.058c0.03-0.459-0.024-0.92-0.16-1.36
			c0.025-2.676,0.212-5.347,0.56-8h126.88c0.348,2.653,0.535,5.324,0.56,8c-0.083,0.45-0.083,0.91,0,1.36
			c-12.558,4.242-19.3,17.86-15.058,30.418c4.242,12.558,17.86,19.3,30.418,15.058c12.558-4.242,19.3-17.86,15.058-30.418
			c-2.396-7.093-7.965-12.662-15.058-15.058c0.303-0.406,0.52-0.868,0.64-1.36c0-2.72,0-5.36-0.4-8h24.8l4.96,88.48
			c0.254,4.23,3.763,7.528,8,7.52c4.418,0.008,8.006-3.567,8.014-7.986C261.391,311.893,261.387,311.728,261.377,311.564z
			 M64.017,264.044c-4.418,0-8-3.582-8-8c0-4.418,3.582-8,8-8s8,3.582,8,8C72.017,260.462,68.435,264.044,64.017,264.044z
			 M76.737,208.044c9.773-24.159,33.219-39.98,59.28-40c26.061,0.02,49.507,15.841,59.28,40H76.737z M216.017,256.044
			c0,4.418-3.582,8-8,8s-8-3.582-8-8c0-4.418,3.582-8,8-8S216.017,251.626,216.017,256.044z"/>
	</g>
</g>
<g>
	<g>
		<path d="M470.178,311.593c-0.001-0.01-0.001-0.019-0.002-0.029l-14.16-248c-0.254-4.23-3.763-7.528-8-7.52h-35.68
			C399.09,13.894,354.182-9.538,312.032,3.708c-24.951,7.841-44.494,27.384-52.336,52.336h-35.68c-4.237-0.008-7.746,3.29-8,7.52
			l-6.24,112c-0.27,4.41,3.086,8.204,7.496,8.474c0.035,0.002,0.07,0.004,0.104,0.006c4.237,0.008,7.746-3.29,8-7.52l6.64-104.48
			h24.8c0,2.64,0,5.28,0,8c-0.039,0.453-0.039,0.907,0,1.36c-12.543,4.286-19.237,17.928-14.951,30.471
			c4.286,12.543,17.928,19.237,30.471,14.951c12.543-4.286,19.237-17.928,14.951-30.471c-2.402-7.029-7.922-12.549-14.951-14.951
			c-0.067-0.462-0.174-0.917-0.32-1.36c0.025-2.676,0.212-5.347,0.56-8h126.88c0.348,2.653,0.535,5.324,0.56,8
			c-0.039,0.453-0.039,0.907,0,1.36c-12.543,4.286-19.237,17.928-14.951,30.471c4.286,12.543,17.928,19.237,30.471,14.951
			c12.543-4.286,19.237-17.928,14.951-30.471c-2.402-7.029-7.922-12.549-14.951-14.951c0.201-0.438,0.361-0.893,0.48-1.36
			c0-2.72,0-5.36,0-8h24.8l13.36,240.48c0.254,4.23,3.763,7.528,8,7.52h0.48C467.067,319.787,470.435,316.003,470.178,311.593z
			 M264.017,112.044c-4.418,0-8-3.582-8-8s3.582-8,8-8s8,3.582,8,8S268.435,112.044,264.017,112.044z M276.737,56.044
			c9.773-24.159,33.219-39.98,59.28-40c26.061,0.02,49.507,15.841,59.28,40H276.737z M416.017,104.044c0,4.418-3.582,8-8,8
			s-8-3.582-8-8s3.582-8,8-8S416.017,99.626,416.017,104.044z"/>
	</g>
</g>
<g>
	<g>
		<rect x="16.017" y="0.044" width="16" height="16"/>
	</g>
</g>
<g>
	<g>
		<rect x="16.017" y="32.044" width="16" height="16"/>
	</g>
</g>
<g>
	<g>
		<rect x="0.017" y="16.044" width="16" height="16"/>
	</g>
</g>
<g>
	<g>
		<rect x="32.017" y="16.044" width="16" height="16"/>
	</g>
</g>
<g>
	<g>
		<rect x="152.017" y="32.044" width="16" height="16"/>
	</g>
</g>
<g>
	<g>
		<rect x="152.017" y="64.044" width="16" height="16"/>
	</g>
</g>
<g>
	<g>
		<rect x="136.017" y="48.044" width="16" height="16"/>
	</g>
</g>
<g>
	<g>
		<rect x="168.017" y="48.044" width="16" height="16"/>
	</g>
</g>
<g>
	<g>
		<rect x="480.017" y="0.044" width="16" height="16"/>
	</g>
</g>
<g>
	<g>
		<rect x="480.017" y="32.044" width="16" height="16"/>
	</g>
</g>
<g>
	<g>
		<rect x="464.017" y="16.044" width="16" height="16"/>
	</g>
</g>
<g>
	<g>
		<rect x="496.017" y="16.044" width="16" height="16"/>
	</g>
</g>
<g>
	<g>
		<rect x="40.017" y="112.044" width="16" height="16"/>
	</g>
</g>
<g>
	<g>
		<rect x="40.017" y="144.044" width="16" height="16"/>
	</g>
</g>
<g>
	<g>
		<rect x="24.017" y="128.044" width="16" height="16"/>
	</g>
</g>
<g>
	<g>
		<rect x="56.017" y="128.044" width="16" height="16"/>
	</g>
</g>
<g>
</g>
<g>
</g>
<g>
</g>
<g>
</g>
<g>
</g>
<g>
</g>
<g>
</g>
<g>
</g>
<g>
</g>
<g>
</g>
<g>
</g>
<g>
</g>
<g>
</g>
<g>
</g>
<g>
</g>
</svg>
