<svg height="512" viewBox="0 0 64 64" width="512" xmlns="http://www.w3.org/2000/svg"><g id="flat"><path d="m50 55-5 6h-26l-5-6 4.79-23.94.21-1.06v-23l4-4v23a7.113 7.113 0 0 0 1.51 4.03c1.22 1.56 3.45 2.97 7.49 2.97 9 0 9-7 9-7v-23l4 4v23z" fill="#e97424"/><g fill="#f9bb4b"><path d="m23 3h18v4h-18z"/><path d="m28 58h-7a1 1 0 0 1 -.707-.293l-3-3 1.414-1.414 2.707 2.707h6.586z"/><path d="m43 58h-4v-2h3.586l2.329-2.329-1.895-9.471 1.96-.392 2 10a1 1 0 0 1 -.273.9l-3 3a1 1 0 0 1 -.707.292z"/><path d="m35 56h2v2h-2z"/></g><path d="m27.707 42.293-3.6-3.617h-2.207l-3.609 3.617a1 1 0 0 0 -.291.707v3h2v-2.586l2-2v6.586h2v-6.586l2 2v2.586h2v-3a1 1 0 0 0 -.293-.707z" fill="#b5554e"/><path d="m23.08 32.19 1.21 4.85-2.1-.15-1.07-4.27-2.33-1.56.21-1.06v-1.2l2.72 1.81 1.7-2.54a6.689 6.689 0 0 0 1.09 1.96z" fill="#b5554e"/><circle cx="23" cy="38" fill="#fcf05a" r="2"/></g></svg>