<svg id="Capa_1" enable-background="new 0 0 512 512" height="512" viewBox="0 0 512 512" width="512" xmlns="http://www.w3.org/2000/svg"><g><path d="m305.179 257h-33v-98h25c8.284 0 15-6.716 15-15s-6.716-15-15-15h-25v-34h25c8.284 0 15-6.716 15-15s-6.716-15-15-15h-25v-35h25c8.284 0 15-6.716 15-15s-6.716-15-15-15h-80c-8.284 0-15 6.716-15 15s6.716 15 15 15h25v35h-25c-8.284 0-15 6.716-15 15s6.716 15 15 15h25v34h-25c-8.284 0-15 6.716-15 15s6.716 15 15 15h25v98h-33c-8.041 0-14.652 6.341-14.987 14.376-2.128 51.027-.269 129.935 10.448 179.703 6.206 28.82 15.035 47.626 26.993 57.491 2.688 2.217 6.063 3.43 9.546 3.43h32c3.483 0 6.858-1.213 9.546-3.43 11.958-9.865 20.787-28.671 26.993-57.491 10.717-49.768 12.576-128.677 10.448-179.703-.335-8.035-6.946-14.376-14.987-14.376zm-15.987 114.479c-4.371 75.594-16.016 101.721-22.455 110.521h-19.117c-6.438-8.8-18.084-34.927-22.454-110.521-1.964-33.979-1.757-66.514-1.398-84.479h66.822c.358 17.965.565 50.499-1.398 84.479z"/><path d="m145.179 321h-1v-65c0-8.284-6.716-15-15-15h-1v-81c0-5.682-3.21-10.876-8.292-13.416l-64-32c-9.934-4.967-21.708 2.24-21.708 13.416v113h-1c-8.284 0-15 6.716-15 15v65h-1c-8.284 0-15 6.716-15 15v161c0 8.284 6.716 15 15 15h128c8.284 0 15-6.716 15-15v-161c0-8.284-6.716-15-15-15zm-81-168.729 34 17v71.729h-34zm-16 118.729h66v50h-66zm82 211h-98v-131h98z"/><path d="m422.621 121.036c-55.138 1.599-94.048 55.448-78.755 108.971l26.313 92.095v174.898c0 8.284 6.716 15 15 15h80c8.284 0 15-6.716 15-15v-174.898l26.313-92.095c15.56-54.459-25.269-110.564-83.871-108.971zm4.246 29.988c35.531 1.028 60.699 36.016 50.778 70.74l-23.781 83.236h-57.371l-23.781-83.235c-10.135-35.475 16.416-71.817 54.155-70.741zm23.312 330.976h-50v-147h50z"/></g></svg>