<?xml version="1.0" encoding="iso-8859-1"?>
<!-- Generator: Adobe Illustrator 19.0.0, SVG Export Plug-In . SVG Version: 6.00 Build 0)  -->
<svg version="1.1" id="Capa_1" xmlns="http://www.w3.org/2000/svg" xmlns:xlink="http://www.w3.org/1999/xlink" x="0px" y="0px"
	 viewBox="0 0 512 512" style="enable-background:new 0 0 512 512;" xml:space="preserve">
<g>
	<g>
		<path d="M272,0h-32c-61.76,0-112,50.24-112,112v288c0,61.76,50.24,112,112,112h32c61.76,0,112-50.24,112-112V112
			C384,50.24,333.76,0,272,0z M352,400c0,44.112-35.888,80-80,80h-32c-44.112,0-80-35.888-80-80V272h192V400z M352,240H160V112
			c0-44.112,35.888-80,80-80h32c44.112,0,80,35.888,80,80V240z"/>
	</g>
</g>
<g>
</g>
<g>
</g>
<g>
</g>
<g>
</g>
<g>
</g>
<g>
</g>
<g>
</g>
<g>
</g>
<g>
</g>
<g>
</g>
<g>
</g>
<g>
</g>
<g>
</g>
<g>
</g>
<g>
</g>
</svg>
